<svg width="32" height="32" viewBox="0 0 32 32" fill="none" xmlns="http://www.w3.org/2000/svg">
<path d="M16 6.66669C9.93935 6.66669 4.7636 10.4364 2.66663 15.7576C4.7636 21.0788 9.93935 24.8485 16 24.8485C22.0606 24.8485 27.2363 21.0788 29.3333 15.7576C27.2363 10.4364 22.0606 6.66669 16 6.66669ZM16 21.8182C12.6545 21.8182 9.93935 19.1031 9.93935 15.7576C9.93935 12.4121 12.6545 9.69699 16 9.69699C19.3454 9.69699 22.0606 12.4121 22.0606 15.7576C22.0606 19.1031 19.3454 21.8182 16 21.8182ZM16 12.1212C13.9878 12.1212 12.3636 13.7455 12.3636 15.7576C12.3636 17.7697 13.9878 19.394 16 19.394C18.0121 19.394 19.6363 17.7697 19.6363 15.7576C19.6363 13.7455 18.0121 12.1212 16 12.1212Z" fill="#767676"/>
</svg>
