<svg width="32" height="32" viewBox="0 0 32 32" fill="none" xmlns="http://www.w3.org/2000/svg">
<path d="M23.7915 21.8445L20.6079 18.6667C20.7725 18.4039 20.9 18.096 20.9905 17.7429C21.0809 17.3898 21.1262 17.0326 21.1262 16.6713C21.1262 15.5053 20.719 14.5158 19.9046 13.7028C19.0902 12.8899 18.0989 12.4834 16.9307 12.4834C16.5688 12.4834 16.215 12.5245 15.8695 12.6066C15.524 12.6887 15.2114 12.8201 14.9317 13.0008L12.217 10.2664C12.7928 10.0036 13.5291 9.77367 14.4258 9.5766C15.3225 9.37952 16.1986 9.28099 17.0541 9.28099C19.2752 9.28099 21.3236 9.88863 23.1992 11.1039C25.0749 12.3192 26.5063 13.9533 27.4934 16.0062C27.5428 16.0883 27.5757 16.1868 27.5921 16.3018C27.6086 16.4167 27.6168 16.5399 27.6168 16.6713C27.6168 16.8027 27.6086 16.9299 27.5921 17.0531C27.5757 17.1763 27.5428 17.2789 27.4934 17.361C27.0657 18.2643 26.5392 19.0937 25.914 19.8491C25.2887 20.6046 24.5813 21.2697 23.7915 21.8445ZM24.68 26.8699L21.0768 23.3472C20.501 23.5771 19.8511 23.7537 19.1272 23.8768C18.4033 24 17.6711 24.0616 16.9307 24.0616C14.6602 24.0616 12.579 23.4539 10.6869 22.2386C8.79481 21.0234 7.35519 19.3893 6.36802 17.3364C6.31867 17.2379 6.28576 17.1352 6.26931 17.0285C6.25286 16.9217 6.24463 16.8027 6.24463 16.6713C6.24463 16.5399 6.25697 16.4126 6.28165 16.2895C6.30633 16.1663 6.33512 16.0636 6.36802 15.9815C6.71353 15.2425 7.15365 14.524 7.68836 13.826C8.22308 13.128 8.8524 12.467 9.57632 11.843L6.98501 9.25635C6.83693 9.10854 6.76289 8.9361 6.76289 8.73903C6.76289 8.54196 6.83693 8.36951 6.98501 8.22171C7.13308 8.0739 7.30995 8 7.51561 8C7.72127 8 7.89814 8.0739 8.04621 8.22171L25.7165 25.8599C25.8481 25.9913 25.914 26.1514 25.914 26.3403C25.914 26.5291 25.8481 26.6975 25.7165 26.8453C25.5849 27.0095 25.4163 27.0916 25.2106 27.0916C25.0049 27.0916 24.8281 27.0177 24.68 26.8699ZM16.9307 20.8591C17.1611 20.8591 17.4079 20.8386 17.6711 20.7975C17.9343 20.7565 18.1565 20.6949 18.3374 20.6128L12.9821 15.2671C12.8998 15.4642 12.8381 15.6859 12.797 15.9323C12.7558 16.1786 12.7353 16.4249 12.7353 16.6713C12.7353 17.8537 13.1466 18.8473 13.9692 19.652C14.7919 20.4568 15.779 20.8591 16.9307 20.8591ZM19.522 17.5828L16.0176 14.0847C17.0377 13.707 17.9837 13.904 18.8557 14.6759C19.7277 15.4478 19.9498 16.4167 19.522 17.5828Z" fill="#767676"/>
</svg>
