<svg width="36" height="36" viewBox="0 0 36 36" fill="none" xmlns="http://www.w3.org/2000/svg">
<path d="M25.8871 14H24.6849V11.7143C24.6849 8.56 21.992 6 18.674 6C15.356 6 12.6631 8.56 12.6631 11.7143V14H11.4609C10.1385 14 9.05652 15.0286 9.05652 16.2857V27.7143C9.05652 28.9714 10.1385 30 11.4609 30H25.8871C27.2095 30 28.2915 28.9714 28.2915 27.7143V16.2857C28.2915 15.0286 27.2095 14 25.8871 14ZM18.674 24.2857C17.3516 24.2857 16.2696 23.2571 16.2696 22C16.2696 20.7429 17.3516 19.7143 18.674 19.7143C19.9964 19.7143 21.0784 20.7429 21.0784 22C21.0784 23.2571 19.9964 24.2857 18.674 24.2857ZM15.0674 14V11.7143C15.0674 9.81714 16.6784 8.28571 18.674 8.28571C20.6696 8.28571 22.2806 9.81714 22.2806 11.7143V14H15.0674Z" fill="#767676"/>
</svg>
