<svg width="36" height="36" viewBox="0 0 36 36" fill="none" xmlns="http://www.w3.org/2000/svg">
<path d="M8.651 28.4877C7.9168 28.4877 7.29142 28.2294 6.77485 27.7128C6.25828 27.1962 6 26.5709 6 25.8367V11.6792C6 10.9372 6.25828 10.3052 6.77485 9.78314C7.29142 9.26105 7.9168 9 8.651 9H27.3208C28.0628 9 28.6948 9.26105 29.2169 9.78314C29.739 10.3052 30 10.9372 30 11.6792V25.8367C30 26.5709 29.739 27.1962 29.2169 27.7128C28.6948 28.2294 28.0628 28.4877 27.3208 28.4877H8.651ZM17.9859 19.886C18.1175 19.886 18.2397 19.8672 18.3525 19.8296C18.4653 19.792 18.5889 19.7351 18.7231 19.659L26.926 14.161C27.02 14.114 27.1093 14.0223 27.1939 13.886C27.2785 13.7497 27.3208 13.5945 27.3208 13.4203C27.3208 13.0937 27.1657 12.8253 26.8555 12.6151C26.5452 12.4048 26.2303 12.4125 25.9107 12.6381L17.9859 17.8273L10.0893 12.6381C9.76968 12.4313 9.45006 12.4125 9.13043 12.5817C8.81081 12.7509 8.651 13.022 8.651 13.395C8.651 13.5617 8.698 13.7122 8.79201 13.8466C8.88602 13.981 8.9818 14.0864 9.07936 14.1628L17.2493 19.659C17.3831 19.7351 17.5065 19.792 17.6193 19.8296C17.7321 19.8672 17.8543 19.886 17.9859 19.886Z" fill="#767676"/>
</svg>
